<svg xmlns="http://www.w3.org/2000/svg" viewBox="0 0 64 64"><path fill="#fff" fill-opacity=".131" d="M58 32c0 14.4-11.6 26-26 26S6 46.4 6 32 17.6 6 32 6s26 11.6 26 26zM0 32c0 17.7 14.3 32 32 32s32-14.3 32-32S49.7 0 32 0 0 14.3 0 32z"></path><linearGradient id="satir-gradient-1" x1="-91.457" x2="-91.981" y1="101.232" y2="102.114" gradientTransform="matrix(35 0 0 -57.055 3259 5822.275)" gradientUnits="userSpaceOnUse"><stop offset="0" stop-color="#fff"></stop><stop offset=".839" stop-color="#fff" stop-opacity="0"></stop><stop offset="1" stop-color="#fff" stop-opacity="0"></stop></linearGradient><path fill="url(#satir-gradient-1)" d="M58 32c0 7.7-3.4 14.9-9.1 19.8-1.3 1.1-1.4 3-.3 4.2 1.1 1.3 3 1.4 4.2.3 7-6 11.2-14.8 11.2-24.3C64 14.3 49.7 0 32 0c-1.7 0-3 1.3-3 3s1.3 3 3 3c14.4 0 26 11.6 26 26z" class="satir-spinner__path-2"></path><linearGradient id="satir-gradient-2" x1="-92.119" x2="-91.583" y1="101.863" y2="100.97" gradientTransform="matrix(35 0 0 -57.055 3230 5829.22)" gradientUnits="userSpaceOnUse"><stop offset="0" stop-color="#fff"></stop><stop offset=".839" stop-color="#fff" stop-opacity="0"></stop><stop offset="1" stop-color="#fff" stop-opacity="0"></stop></linearGradient><path fill="url(#satir-gradient-2)" d="M6 32c0-7.7 3.4-14.9 9.1-19.8 1.3-1.1 1.4-3 .3-4.2s-3-1.4-4.2-.3C4.2 13.7 0 22.5 0 32c0 17.7 14.3 32 32 32 1.7 0 3-1.3 3-3s-1.3-3-3-3C17.6 58 6 46.4 6 32z" class="satir-spinner__path-3"></path></svg>